# AST/ASF file generated using VICON BodyLanguage
# -----------------------------------------------
:version 1.10
:name VICON
:units
  mass 1.0
  length 0.45
  angle deg
:documentation
   .ast/.asf automatically generated from VICON data using
   VICON BodyBuilder and BodyLanguage model FoxedUp or BRILLIANT.MOD
:root
   order TX TY TZ RX RY RZ
   axis XYZ
   position 0 0 0  
   orientation 0 0 0 
:bonedata
  begin
     id 1 
     name lhipjoint
     direction 0.662698 -0.695252 0.27831 
     length 2.53073 
     axis 0 0 0  XYZ
  end
  begin
     id 2 
     name lfemur
     direction 0.34202 -0.939693 0  
     length 7.16147  
     axis 0 0 20  XYZ
    dof rx ry rz
    limits (-160.0 20.0)
           (-70.0 70.0)
           (-60.0 70.0)
  end
  begin
     id 3 
     name ltibia
     direction 0.34202 -0.939693 0   
     length 7.63967   
     axis 0 0 20   XYZ
    dof rx
    limits (-10.0 170.0)
  end
  begin
     id 4 
     name lfoot
     direction 0.0938457 -0.257721 0.961651   
     length 1.89793   
     axis -90 7.62852e-016 20   XYZ
    dof rx rz
    limits (-45.0 90.0)
           (-70.0 20.0)
  end
  begin
     id 5 
     name ltoes
     direction -0.00116841 -0.0030592 0.999995   
     length 0.955649   
     axis -90 7.62852e-016 20   XYZ
    dof rx
    limits (-90.0 20.0)
  end
  begin
     id 6 
     name rhipjoint
     direction -0.649445 -0.705948 0.282592   
     length 2.49238  
     axis 0 0 0  XYZ 
  end
  begin
     id 7 
     name rfemur
     direction -0.34202 -0.939693 0   
     length 6.90728   
     axis 0 0 -20   XYZ
    dof rx ry rz
    limits (-160.0 20.0)
           (-70.0 70.0)
           (-70.0 60.0)
  end
  begin
     id 8 
     name rtibia
     direction -0.34202 -0.939693 0   
     length 7.72868   
     axis 0 0 -20   XYZ
    dof rx
    limits (-10.0 170.0)
 end
 begin
     id 9 
     name rfoot
     direction -0.0920068 -0.252865 0.963117   
     length 1.97476  
     axis -90 -7.62852e-016 -20   XYZ
    dof rx rz
    limits (-45.0 90.0)
           (-20.0 70.0)
  end
  begin
     id 10 
     name rtoes
     direction 0.000391322 0.00230649 0.999997   
     length 0.992641   
     axis -90 -7.62852e-016 -20   XYZ
    dof rx
    limits (-90.0 20.0)
  end
  begin
     id 11 
     name lowerback
     direction -0.00875327 0.998321 -0.0572635   
     length 2.20024   
     axis 0 0 0   XYZ
    dof rx ry rz
    limits (-20.0 45.0)
           (-30.0 30.0)
           (-30.0 30.0)
  end
  begin
     id 12 
     name upperback
     direction 0.00753931 0.999972 -0.000360425   
     length 2.20538   
     axis 0 0 0   XYZ
    dof rx ry rz
    limits (-20.0 45.0)
           (-30.0 30.0)
           (-30.0 30.0)
  end
  begin
     id 13 
     name thorax
     direction 0.0117767 0.999601 0.0256663   
     length 2.21508   
     axis 0 0 0   XYZ
    dof rx ry rz
    limits (-20.0 45.0)
           (-30.0 30.0)
           (-30.0 30.0)
  end
  begin
     id 14 
     name lowerneck
     direction 0.060228 0.994909 0.0807986   
     length 1.7607   
     axis 0 0 0   XYZ
    dof rx ry rz
    limits (-20.0 45.0)
           (-30.0 30.0)
           (-30.0 30.0)
  end
  begin
     id 15 
     name upperneck
     direction -0.0563647 0.959594 -0.275685   
     length 1.75612   
     axis 0 0 0   XYZ
    dof rx ry rz
    limits (-20.0 45.0)
           (-30.0 30.0)
           (-30.0 30.0)
  end
  begin
     id 16
     name head
     direction -0.0161544 0.99458 -0.102714  
     length 1.79288  
     axis 0 0 0   XYZ
    dof rx ry rz
    limits (-20.0 45.0)
           (-30.0 30.0)
           (-30.0 30.0)
  end
  begin
     id 17 
     name lclavicle
     direction 0.93913 0.332189 -0.087669  
     length 3.52087  
     axis 0 0 0   XYZ
    dof ry rz
    limits (-20.0 10.0)
           (0.0 20.0)
  end
  begin
     id 18 
     name lhumerus
     direction 1 -4.48974e-011 -2.70836e-027   
     length 5.35289   
     axis -180 -30 -90   XYZ
    dof rx ry rz
    limits (-60.0 90.0)
           (-90.0 90.0)
           (-90.0 90.0)
  end
  begin
     id 19
     name lradius
     direction 1 -4.48961e-011 -9.76021e-027   
     length 3.27727   
     axis -180 -30 -90   XYZ
    dof rx
    limits (-10.0 170.0)
  end
  begin
     id 20
     name lwrist
     direction 1 -4.49103e-011 -2.23668e-026   
     length 1.63864   
     axis 1.44924e-014 90 90   XYZ
    dof ry
    limits (-180.0 0.0)
 end
  begin
     id 21 
     name lhand
     direction 1 3.0697e-005 0.000161777   
     length 0.54443   
     axis 2.85318e-014 90 90   XYZ
    dof rx rz
    limits (-90.0 90.0)
           (-45.0 45.0)
  end
  begin
     id 22 
     name lfingers
     direction 1 -4.49027e-011 -8.9447e-026   
     length 0.438912   
     axis 5.70628e-014 90 90   XYZ
    dof rx
    limits (0.0 90.0)
  end
  begin
     id 23
     name lthumb
     direction 0.707058 2.6516e-005 0.707156   
     length 0.630274   
     axis -90 45 -3.53137e-014   XYZ
    dof rx rz
    limits (-45.0 45.0)
           (-45.0 45.0)
  end
  begin
     id 24 
     name rclavicle
     direction -0.95274 0.284984 -0.105215   
     length 3.43401  
     axis 0 0 0   XYZ 
    dof ry rz
    limits (-10.0 20.0)
           (-20.0 0.0)
  end
  begin
     id 25 
     name rhumerus
     direction -0.999999 -0.000575019 -0.00106829  
     length 5.52077   
     axis -180 30 90   XYZ
    dof rx ry rz
    limits (-90.0 60.0)
           (-90.0 90.0)
           (-90.0 90.0)
  end
  begin
     id 26 
     name rradius
     direction -1 -4.4879e-011 -6.35415e-027   
     length 3.32364   
     axis -180 30 90   XYZ
    dof rx
    limits (-10.0 170.0)
  end
  begin
     id 27 
     name rwrist
     direction -1 -4.49048e-011 -9.98542e-027   
     length 1.66182   
     axis 6.32482e-015 -90 -90   XYZ
    dof ry
    limits (-180.0 0.0)
  end
  begin
     id 28
     name rhand
     direction -1 -4.48978e-011 -1.99771e-026   
     length 0.732235   
     axis 1.27479e-014 -90 -90   XYZ
    dof rx rz
    limits (-90.0 90.0)
           (-45.0 45.0)
  end
  begin
     id 29
     name rfingers
     direction -1 -4.49144e-011 -3.99245e-026   
     length 0.590347   
     axis 2.5496e-014 -90 -90   XYZ
    dof rx
    limits (0.0 90.0)
  end
  begin
     id 30
     name rthumb
     direction -0.707107 -6.35121e-011 0.707107   
     length 0.847624   
     axis -90 -45 -2.82974e-014   XYZ
    dof rx rz
    limits (-45.0 45.0)
           (-45.0 45.0)
  end
:hierarchy
  begin
    root lhipjoint rhipjoint lowerback
    lhipjoint lfemur
    lfemur ltibia
    ltibia lfoot
    lfoot ltoes
    rhipjoint rfemur
    rfemur rtibia
    rtibia rfoot
    rfoot rtoes
    lowerback upperback
    upperback thorax
    thorax lowerneck lclavicle rclavicle
    lowerneck upperneck
    upperneck head
    lclavicle lhumerus
    lhumerus lradius
    lradius lwrist
    lwrist lhand lthumb
    lhand lfingers
    rclavicle rhumerus
    rhumerus rradius
    rradius rwrist
    rwrist rhand rthumb
    rhand rfingers
  end

#!OML:ASF G:\Work\Work\Patient Classification 1\Elijah\terrain1\Elijah.ASF
:FULLY-SPECIFIED
:DEGREES
386
root 14.489 21.9975 25.6684 5.80064 -1.58796 1.57774
lowerback 2.91202 0.459058 -1.79024
upperback 0.0827669 0.553853 0.115849
thorax -1.5655 0.29008 1.09901
lowerneck -6.42555 18.1118 15.9443
upperneck 32.1012 30.1197 -15.6871
head 18.3553 13.1619 -3.16277
rclavicle 6.4605e-016 3.37934e-015
rhumerus -40.3279 -20.0134 -73.0126
rradius 22.1712
rwrist 13.8739
rhand -10.5817 21.1761
rfingers 7.12502
rthumb 15.4234 -8.22851
lclavicle 6.4605e-016 3.37934e-015
lhumerus -34.1462 13.7795 75.9312
lradius 32.7374
lwrist -1.68198
lhand -14.4304 24.989
lfingers 7.12502
lthumb 11.7141 54.6415
rfemur -20.147 -8.54714 18.0566
rtibia 63.9323
rfoot 0.479586 -2.17198
rtoes -12.7599
lfemur -10.2125 -0.792085 -25.8134
ltibia 24.9382
lfoot -11.9545 -4.95962
ltoes -3.70892
387
root 14.494 21.9877 25.7564 5.77815 -1.06195 1.68927
lowerback 2.46709 0.151021 -1.99108
upperback 1.15784 0.158362 0.278285
thorax -0.202573 0.0718482 1.39706
lowerneck -10.0255 18.3446 13.2203
upperneck 32.6099 30.0966 -14.1729
head 18.4472 12.6869 -1.87176
rclavicle -1.1778e-014 4.77083e-015
rhumerus -38.0259 -19.9652 -73.7412
rradius 21.6689
rwrist 13.4829
rhand -10.7462 21.5963
rfingers 7.12502
rthumb 15.265 -7.82043
lclavicle -1.1778e-014 4.77083e-015
lhumerus -31.8615 14.8618 76.6452
lradius 33.0207
lwrist -1.5681
lhand -13.9757 24.9527
lfingers 7.12502
lthumb 12.1525 54.5797
rfemur -20.9412 -9.17782 18.0128
rtibia 64.2216
rfoot -0.490523 -2.11932
rtoes -13.4922
lfemur -9.95188 -1.10535 -25.93
ltibia 25.1719
lfoot -11.9812 -5.28361
ltoes -3.39266
388
root 14.509 21.9719 25.8625 5.50877 -0.669096 2.73994
lowerback 3.51927 0.251239 -2.34608
upperback -0.299754 0.225505 -0.404429
thorax -2.28868 0.138901 0.887945
lowerneck -6.04658 17.6238 15.0207
upperneck 32.2267 29.1711 -14.824
head 17.6604 12.807 -3.02705
rclavicle -9.405e-015 -1.11319e-014
rhumerus -41.8326 -19.4379 -73.0323
rradius 22.4515
rwrist 12.4472
rhand -10.5354 21.1133
rfingers 7.12502
rthumb 15.468 -8.28791
lclavicle -9.405e-015 -1.11319e-014
lhumerus -34.5535 12.9545 76.0812
lradius 34.0249
lwrist -1.07423
lhand -13.4889 24.488
lfingers 7.12502
lthumb 12.6219 54.0866
rfemur -21.3141 -10.1353 16.7117
rtibia 64.3396
rfoot -1.30798 -1.71112
rtoes -14.0736
lfemur -9.40318 -1.2546 -27.1495
ltibia 25.5722
lfoot -12.1455 -5.65192
ltoes -3.14832
389
root 14.4752 21.9691 25.9522 5.4677 -0.676834 2.4232
lowerback 3.97376 0.310026 -2.47494
upperback -0.482239 0.286008 -0.219139
thorax -2.73565 0.178428 1.14482
lowerneck -5.86786 17.6853 15.1016
upperneck 32.1835 29.2912 -14.8669
head 17.6505 12.8771 -3.03721
rclavicle -1.55797e-014 -2.18663e-015
rhumerus -42.4548 -19.3262 -72.8688
rradius 22.8544
rwrist 11.934
rhand -10.291 20.7893
rfingers 7.12502
rthumb 15.7034 -8.59348
lclavicle -1.55797e-014 -2.18663e-015
lhumerus -34.5476 12.3951 76.3909
lradius 34.5939
lwrist -0.422292
lhand -13.4619 24.5804
lfingers 7.12502
lthumb 12.6479 54.1774
rfemur -22.2204 -9.68075 17.5315
rtibia 64.1432
rfoot -1.71267 -2.40031
rtoes -14.5084
lfemur -9.17228 -0.992602 -26.6442
ltibia 25.7323
lfoot -12.0522 -5.81619
ltoes -4.31092
390
root 14.4443 21.9681 26.0076 5.75574 -0.791631 1.92322
lowerback 3.48252 0.441534 -2.23624
upperback -0.0472838 0.495347 -0.0903825
thorax -2.01916 0.269171 1.13549
lowerneck -6.16918 17.7266 15.5726
upperneck 31.485 29.539 -15.9921
head 17.809 12.9195 -3.44044
rclavicle -1.01877e-015 -5.96354e-016
rhumerus -41.7939 -19.8942 -73.0288
rradius 22.9625
rwrist 11.6144
rhand -10.242 21.0681
rfingers 7.12502
rthumb 15.7506 -8.31098
lclavicle -1.01877e-015 -5.96354e-016
lhumerus -33.1488 11.4484 77.1012
lradius 34.9866
lwrist 0.826679
lhand -13.7595 24.9372
lfingers 7.12502
lthumb 12.361 54.5517
rfemur -23.7712 -8.87803 18.6478
rtibia 63.8194
rfoot -1.55325 -3.27451
rtoes -14.4664
lfemur -9.65386 -0.766177 -25.9356
ltibia 26.2395
lfoot -11.9875 -5.80539
ltoes -6.14421
391
root 14.4789 21.9595 26.1754 5.63379 0.0963985 2.90016
lowerback 3.61851 0.158592 -2.49692
upperback -0.495104 0.0864012 -0.508106
thorax -2.54109 0.0751166 0.873098
lowerneck -5.79268 17.5835 15.6519
upperneck 32.0075 29.3742 -15.6696
head 17.9006 12.9037 -3.41551
rclavicle -1.09704e-014 -3.77691e-015
rhumerus -43.0103 -18.5143 -73.3613
rradius 23.2245
rwrist 9.99277
rhand -10.4707 21.143
rfingers 7.12502
rthumb 15.5303 -8.25337
lclavicle -1.09704e-014 -3.77691e-015
lhumerus -34.2911 10.4542 77.2011
lradius 36.2172
lwrist 1.71594
lhand -13.6827 24.988
lfingers 7.12502
lthumb 12.435 54.5981
rfemur -23.518 -10.5895 17.1814
rtibia 63.1842
rfoot -2.48229 -2.44703
rtoes -15.1097
lfemur -9.10387 -1.08987 -27.1647
ltibia 27.0693
lfoot -12.6108 -6.38065
ltoes -6.25206
392
root 14.4156 21.9477 26.2337 5.66798 -0.27046 2.23982
lowerback 3.54813 0.267399 -2.74535
upperback -0.160487 0.237203 -0.150781
thorax -2.16507 0.148222 1.37196
lowerneck -6.17231 17.7253 15.6013
upperneck 31.639 29.5845 -15.9803
head 17.9109 12.9336 -3.42949
rclavicle -7.95139e-016 -9.0447e-015
rhumerus -42.0791 -17.0255 -74.6089
rradius 23.181
rwrist 8.0574
rhand -11.0129 21.1303
rfingers 7.12502
rthumb 15.0081 -8.30585
lclavicle -7.95139e-016 -9.0447e-015
lhumerus -33.5702 10.6247 77.4368
lradius 37.181
lwrist 1.93856
lhand -13.3087 25.481
lfingers 7.12502
lthumb 12.7956 55.0688
rfemur -24.5819 -9.03984 18.7286
rtibia 62.471
rfoot -2.66936 -4.03158
rtoes -15.2478
lfemur -9.45045 -0.639277 -26.1254
ltibia 27.6451
lfoot -12.3942 -6.54149
ltoes -5.57857
393
root 14.381 21.9337 26.291 5.72603 -0.698733 1.53361
lowerback 3.61026 0.422694 -2.45583
upperback -0.123005 0.459128 0.0320411
thorax -2.17024 0.256378 1.38518
lowerneck -6.12772 17.5049 15.156
upperneck 31.4225 29.139 -15.7941
head 17.5242 12.7414 -3.4324
rclavicle 6.37353e-015 6.16232e-015
rhumerus -41.9935 -16.5457 -75.1059
rradius 23.3001
rwrist 7.25155
rhand -11.2837 20.9101
rfingers 7.12502
rthumb 14.7472 -8.5453
lclavicle 6.37353e-015 6.16232e-015
lhumerus -33.1339 10.2964 77.5528
lradius 37.579
lwrist 2.25228
lhand -13.2771 25.7177
lfingers 7.12502
lthumb 12.826 55.3036
rfemur -25.6106 -7.73553 20.0118
rtibia 61.5996
rfoot -2.33073 -5.08995
rtoes -15.3878
lfemur -9.84702 -0.129974 -25.2046
ltibia 28.3737
lfoot -12.2868 -6.60111
ltoes -5.15649
394
root 14.423 21.9223 26.4438 5.24927 0.789924 2.45271
lowerback 3.09605 -0.171441 -2.64482
upperback 0.851015 -0.313022 -0.240518
thorax -0.849717 -0.153655 1.2479
lowerneck -6.86485 18.2181 16.4075
upperneck 30.6731 30.5597 -17.5073
head 18.4083 13.234 -3.76702
rclavicle -4.00054e-015 1.98785e-016
rhumerus -40.616 -17.4378 -74.9407
rradius 22.808
rwrist 8.05279
rhand -11.2399 20.743
rfingers 7.12502
rthumb 14.7894 -8.70933
lclavicle -4.00054e-015 1.98785e-016
lhumerus -31.8599 10.4518 77.9728
lradius 38.2029
lwrist 2.55591
lhand -13.1853 25.1065
lfingers 7.12502
lthumb 12.9145 54.6869
rfemur -24.7891 -10.1135 18.5486
rtibia 60.5681
rfoot -2.79681 -4.00428
rtoes -15.5384
lfemur -9.0372 -0.709182 -26.3429
ltibia 29.3971
lfoot -12.8331 -7.42684
ltoes -4.59481
